<svg xmlns="http://www.w3.org/2000/svg" viewBox="0 0 468 442.11"><defs><style>.cls-1{fill:#00a1e0;}.cls-2{font-size:20px;font-family:TitilliumWeb-Bold, Titillium Web;font-weight:700;}.cls-3{letter-spacing:-0.01em;}.cls-4{letter-spacing:0em;}.cls-5{fill:#394054;}.cls-6{letter-spacing:-0.07em;}.cls-7{letter-spacing:0em;}.cls-8{letter-spacing:0em;}.cls-9{fill:#fff;}.cls-10{fill:#478ac2;}.cls-11{fill:#484f62;}.cls-12{fill:#129ad5;}.cls-13{fill:#e5e5e7;}.cls-14{fill:#f5f7f8;}</style></defs><title>diagram-squareArtboard 1 copy 2</title><g id="Layer_2" data-name="Layer 2"><polygon class="cls-1" points="258.62 316.25 217.81 316.25 223.86 310.2 216.55 310.2 207.74 319.02 216.55 327.58 223.86 327.58 217.81 321.54 258.62 321.54 258.62 316.25"/><polygon class="cls-1" points="249.8 347.8 242.5 347.8 248.54 353.84 207.74 353.84 207.74 359.13 248.54 359.13 242.5 365.18 249.8 365.18 258.62 356.36 249.8 347.8"/><polygon class="cls-1" points="387.13 241.58 387.13 234.28 380.84 240.32 380.84 199.52 375.8 199.52 375.8 240.32 369.5 234.28 369.5 241.58 378.32 250.4 387.13 241.58"/><polygon class="cls-1" points="249.8 53.67 242.5 53.67 248.54 59.97 207.74 59.97 207.74 65 248.54 65 242.5 71.3 249.8 71.3 258.62 62.48 249.8 53.67"/></g><g id="Layer_3" data-name="Layer 3"><path class="cls-1" d="M113.91,50.73a19.83,19.83,0,0,0,3.63-3.35c4.19-3.91,8.65-8.09,12.84-12.28,2-2,5.3-3.91,1.4-7.26-3.07-2.51-5.58-6.14-10-2.79-5,4.19-9.21,8.65-14,13.4a4.56,4.56,0,0,0-.28,6.7c1.4,2.23,3.07,4.75,6.42,5.58"/><path class="cls-1" d="M64.79,80.59c-6.14,3.35-10.61,9.21-15.91,14.51-4.19,3.91-.28,6.7,2,9.49,3.35,3.91,5.58,2.23,8.09-.56,3.91-4.19,8.65-8.09,12.56-12.28,1.4-1.4,5-2.79,2.23-5.86-2-2.51-3.91-5.3-8.93-5.3"/><path class="cls-1" d="M62.28,107.11c32.38-4.19,73.13-43.82,70.9-69.78-7,8.37-16.19,13.12-19.54,23.73A39.25,39.25,0,0,1,87.12,87c-11.72,3.91-17.31,12.84-24.84,20.1"/><path class="cls-1" d="M139,36.49c-1.4,15.35-8.93,27.91-18.7,39.08-14.51,17-31.54,31-54.71,36-4.47.84-9.49,2-14-1.12-10.61-7.82-10.89-12.84-1.4-21.77,2-2,3.91-3.91,6.14-5.86,8.65-8.37,10.33-8.65,19.54-.28,3.35,3.07,6.14,3.35,9.77,1.67a46.78,46.78,0,0,0,20.66-16.75c4.47-6.7,7.54-12.84-.84-19-5-3.63-4.47-8.65-.28-12.84,3.35-3.35,7-6.7,10.33-9.77,3.35-3.35,7-8.09,12.28-5,5.58,3.07,12,7.26,11.17,15.63"/><path class="cls-1" d="M39.95,62.17C33.25,34.26,69,5.79,93,13.88c-32.66,2.79-49.41,19-53,48.29"/><path class="cls-1" d="M90.19,24.21c-22.33,3.35-35.45,15.63-37.4,38.52C48.6,56,50.27,47.38,57.25,38.45c8.09-10.89,19-15.91,32.94-14.24"/><path class="cls-1" d="M90.75,36.49c-15.63,2-24.28,10.61-26.24,26-5.3-14.51,10-29.59,26.24-26"/><text class="cls-2" transform="translate(27.4 159.42)">Phone <tspan class="cls-3" x="59.14" y="0">Sy</tspan><tspan class="cls-4" x="79.74" y="0">stem</tspan></text><path class="cls-1" d="M354,25.44a13,13,0,1,1-13-13,12.74,12.74,0,0,1,13,13m37.16,0a13,13,0,1,1-13-13,12.89,12.89,0,0,1,13,13M354,62.61a13,13,0,1,1-13-13,12.74,12.74,0,0,1,13,13m74.08,36.67a13,13,0,1,1-13-13,13,13,0,0,1,13,13"/><path class="cls-5" d="M420,50.63V37.42a13.14,13.14,0,0,0,8.07-12,13.21,13.21,0,0,0-13-13,12.95,12.95,0,0,0-4.89,24.94v13.2a11.81,11.81,0,0,0-6.85,6.85h-13a13,13,0,0,0-24.94,5.13,13.14,13.14,0,0,0,8.07,12v13a11.81,11.81,0,0,0-6.85,6.85H353.5a13,13,0,1,0-12,18.09,13.14,13.14,0,0,0,12-8.07h13.2a12.95,12.95,0,1,0,16.87-16.87v-13a13.41,13.41,0,0,0,7.09-7.09h13a12.95,12.95,0,0,0,24.94-4.89A14.45,14.45,0,0,0,420,50.63Z"/><text class="cls-2" transform="translate(319.41 157.42)"><tspan class="cls-6">T</tspan><tspan x="9.14" y="0">en</tspan><tspan class="cls-7" x="30.4" y="0">f</tspan><tspan class="cls-8" x="37.46" y="0">old Cloud</tspan></text><path class="cls-1" d="M345.72,287.71c-18.75.25-31.24,15-28.74,31.74.75,3.5,1.5,6.75-2.25,10-8,7-10,16.5-6.25,26.49s11.5,15.25,22.24,15.25c3.5.25,5,1.25,7,4,10.5,16.25,31.24,16.75,43,1,2-3,3.75-3.5,7.25-2.75,8.75,2.5,16.25-.5,22-7.25,2.5-3,4.75-3.5,8.25-3.5,13,.5,22.49-5.5,28-17,6-11,4.75-22.49-3-32.49h0c-8-10.5-19-13.75-31.74-11-3.5.75-5,.25-7.5-2.25-9.5-10.5-21.74-12.25-33.49-4.75-3,1.75-4.75,2.25-7.5-.5-5.25-5-11.75-7.25-17.25-7"/><text class="cls-2" transform="translate(331.02 432.35)">Floating UI</text><path class="cls-1" d="M154.16,287.7c-21.6.24-43.44.24-65.28.24-21.6,0-43.44.24-65.28-.24-7,0-10,2.91-9.71,10q.36,15.29,0,30.58c0,4.85,1.21,8.74,6.07,10.44S26,344,25.77,348.86c-.24,10,.24,19.9-.24,29.85-.24,7,2.67,9,9.22,9,40.29-.24,80.33-.24,120.62,0,7,0,9-2.91,9-9.46-.24-26.7,0-53.39,0-80.09.24-7-2.43-10.68-10.19-10.44Z"/><path class="cls-9" d="M95.43,291.34c-19.42,0-39.07.24-58.49-.24-5.58-.24-7.52,1.21-7.52,7.28.24,26.21.24,52.18,0,78.39,0,6.31,2.43,8.25,8.25,8.25q57.88-.36,115.76,0c5.82,0,8.25-1.7,8.25-8-.24-25.73-.24-51.69,0-77.66,0-6.07-1.7-8.25-8-8.25-19.9.49-39.07.24-58.25.24Z"/><path class="cls-10" d="M119.21,308.57c-2.91-.49-4.37-2.18-4.13-5.1.24-2.43,1.7-4.13,4.37-4.13,2.91,0,4.37,1.7,4.37,4.61-.24,3.15-1.94,4.37-4.61,4.61Z"/><path class="cls-11" d="M133.77,299.35c2.91.24,4.61,1.46,4.61,4.61a4,4,0,0,1-3.88,4.37c-2.43.24-4.37-.73-4.61-3.64C129.65,302,130.62,299.83,133.77,299.35Z"/><path class="cls-12" d="M148.33,299.35c2.67.24,4.37,1.46,4.61,3.88.24,3.15-1.7,4.37-4.37,4.37s-3.88-1.7-3.88-4.13,1.7-3.4,3.64-4.13Z"/><path class="cls-13" d="M91.79,319.25H65.09a1.82,1.82,0,0,1-1.7-1.7v-1.7a1.82,1.82,0,0,1,1.7-1.7h26.7a1.82,1.82,0,0,1,1.7,1.7v1.7C93.24,318.28,92.76,319.25,91.79,319.25Zm0,9.71H65.09a1.82,1.82,0,0,1-1.7-1.7v-1.7a1.82,1.82,0,0,1,1.7-1.7h26.7a1.82,1.82,0,0,1,1.7,1.7v1.7C93.24,328.23,92.76,329,91.79,329Zm42.71,18.2H57.57a1.82,1.82,0,0,1-1.7-1.7v-1.7a1.82,1.82,0,0,1,1.7-1.7H134.5a1.82,1.82,0,0,1,1.7,1.7v1.7A1.53,1.53,0,0,1,134.5,347.16Z"/><path class="cls-11" d="M54.41,329.44H43.73a3.21,3.21,0,0,1-3.15-3.15V315.37a3.21,3.21,0,0,1,3.15-3.15H54.41a3.21,3.21,0,0,1,3.15,3.15V326a3.27,3.27,0,0,1-3.15,3.4Z"/><path class="cls-13" d="M110.23,378H42a3.21,3.21,0,0,1-3.15-3.15V360.51A3.21,3.21,0,0,1,42,357.35h68.2a3.21,3.21,0,0,1,3.15,3.15v14.32A3.21,3.21,0,0,1,110.23,378Z"/><path class="cls-1" d="M148.33,378H125.28a3.21,3.21,0,0,1-3.15-3.15V360.51a3.21,3.21,0,0,1,3.15-3.15h23.06a3.21,3.21,0,0,1,3.15,3.15v14.32A3.21,3.21,0,0,1,148.33,378Z"/><path class="cls-14" d="M149.55,329.44H113.87a3.21,3.21,0,0,1-3.15-3.15V318a3.21,3.21,0,0,1,3.15-3.15h35.68A3.21,3.21,0,0,1,152.7,318v8.25A3.21,3.21,0,0,1,149.55,329.44Z"/><path class="cls-13" d="M85,305.17H42.52A2.18,2.18,0,0,1,40.34,303v-.49a2.18,2.18,0,0,1,2.18-2.18H85a2.18,2.18,0,0,1,2.18,2.18V303A2.18,2.18,0,0,1,85,305.17Z"/><path class="cls-5" d="M146.39,350.8l-1.21-1.21,5.1-5.1-4.85-4.85,1.21-1.21,6.07,6.07Zm-99.75,0-6.07-6.31,6.07-6.07,1.21,1.21-5.1,5.1,4.85,4.85Z"/><text class="cls-2" transform="translate(68.91 431.39)">CRM</text></g></svg>