<svg xmlns="http://www.w3.org/2000/svg" viewBox="0 0 1098.74 192.01"><defs><style>.cls-1{fill:#00a1e0;}.cls-2{font-size:20px;font-family:TitilliumWeb-Bold, Titillium Web;font-weight:700;}.cls-3{letter-spacing:-0.01em;}.cls-4{letter-spacing:0em;}.cls-5{fill:#394054;}.cls-6{letter-spacing:-0.07em;}.cls-7{letter-spacing:0em;}.cls-8{letter-spacing:0em;}.cls-9{fill:#fff;}.cls-10{fill:#478ac2;}.cls-11{fill:#484f62;}.cls-12{fill:#129ad5;}.cls-13{fill:#e5e5e7;}.cls-14{fill:#f5f7f8;}</style></defs><title>lineArtboard 1 copy</title><g id="Layer_2" data-name="Layer 2"><polygon class="cls-1" points="859.02 49.74 818.22 49.74 824.26 43.7 816.96 43.7 808.14 52.52 816.96 61.08 824.26 61.08 818.22 55.03 859.02 55.03 859.02 49.74"/><polygon class="cls-1" points="850.21 81.3 842.9 81.3 848.95 87.34 808.14 87.34 808.14 92.63 848.95 92.63 842.9 98.67 850.21 98.67 859.02 89.86 850.21 81.3"/><polygon class="cls-1" points="517.44 62.37 510.14 62.37 516.18 68.67 475.38 68.67 475.38 73.71 516.18 73.71 510.14 80 517.44 80 526.25 71.19 517.44 62.37"/><polygon class="cls-1" points="228.45 62.37 221.14 62.37 227.19 68.67 186.39 68.67 186.39 73.71 227.19 73.71 221.14 80 228.45 80 237.26 71.19 228.45 62.37"/></g><g id="Layer_3" data-name="Layer 3"><path class="cls-1" d="M101.85,59.43a19.83,19.83,0,0,0,3.63-3.35c4.19-3.91,8.65-8.09,12.84-12.28,2-2,5.3-3.91,1.4-7.26-3.07-2.51-5.58-6.14-10-2.79-5,4.19-9.21,8.65-14,13.4a4.56,4.56,0,0,0-.28,6.7c1.4,2.23,3.07,4.75,6.42,5.58"/><path class="cls-1" d="M52.72,89.3c-6.14,3.35-10.61,9.21-15.91,14.51-4.19,3.91-.28,6.7,2,9.49,3.35,3.91,5.58,2.23,8.09-.56,3.91-4.19,8.65-8.09,12.56-12.28,1.4-1.4,5-2.79,2.23-5.86-2-2.51-3.91-5.3-8.93-5.3"/><path class="cls-1" d="M50.21,115.81C82.59,111.63,123.34,72,121.11,46c-7,8.37-16.19,13.12-19.54,23.73A39.25,39.25,0,0,1,75,95.72c-11.72,3.91-17.31,12.84-24.84,20.1"/><path class="cls-1" d="M127,45.2c-1.4,15.35-8.93,27.91-18.7,39.08-14.51,17-31.54,31-54.71,36-4.47.84-9.49,2-14-1.12-10.61-7.82-10.89-12.84-1.4-21.77,2-2,3.91-3.91,6.14-5.86,8.65-8.37,10.33-8.65,19.54-.28,3.35,3.07,6.14,3.35,9.77,1.67A46.78,46.78,0,0,0,94.31,76.18c4.47-6.7,7.54-12.84-.84-19-5-3.63-4.47-8.65-.28-12.84,3.35-3.35,7-6.7,10.33-9.77,3.35-3.35,7-8.09,12.28-5,5.58,3.07,12,7.26,11.17,15.63"/><path class="cls-1" d="M27.88,70.88c-6.7-27.91,29-56.38,53-48.29-32.66,2.79-49.41,19-53,48.29"/><path class="cls-1" d="M78.12,32.91c-22.33,3.35-35.45,15.63-37.4,38.52-4.19-6.7-2.51-15.35,4.47-24.28,8.09-10.89,19-15.91,32.94-14.24"/><path class="cls-1" d="M78.68,45.2c-15.63,2-24.28,10.61-26.24,26-5.3-14.51,10-29.59,26.24-26"/><text class="cls-2" transform="translate(15.33 173.79)">Phone <tspan class="cls-3" x="59.14" y="0">Sy</tspan><tspan class="cls-4" x="79.74" y="0">stem</tspan></text><path class="cls-1" d="M332.61,34.15a13,13,0,1,1-13-13,12.74,12.74,0,0,1,13,13m37.16,0a13,13,0,1,1-13-13,12.89,12.89,0,0,1,13,13M332.61,71.31a13,13,0,1,1-13-13,12.74,12.74,0,0,1,13,13M406.7,108a13,13,0,1,1-13-13,13,13,0,0,1,13,13"/><path class="cls-5" d="M398.63,59.33V46.13a13.14,13.14,0,0,0,8.07-12,13.21,13.21,0,0,0-13-13,12.95,12.95,0,0,0-4.89,24.94v13.2A11.81,11.81,0,0,0,382,66.18H369a13,13,0,0,0-24.94,5.13,13.14,13.14,0,0,0,8.07,12v13a11.81,11.81,0,0,0-6.85,6.85h-13.2a13,13,0,1,0-12,18.09,13.14,13.14,0,0,0,12-8.07h13.2A12.95,12.95,0,1,0,362.2,96.25v-13a13.41,13.41,0,0,0,7.09-7.09h13a12.95,12.95,0,0,0,24.94-4.89A14.45,14.45,0,0,0,398.63,59.33Z"/><text class="cls-2" transform="translate(298.03 173.79)"><tspan class="cls-6">T</tspan><tspan x="9.14" y="0">en</tspan><tspan class="cls-7" x="30.4" y="0">f</tspan><tspan class="cls-8" x="37.46" y="0">old Cloud</tspan></text><path class="cls-1" d="M632,21.21c-18.75.25-31.24,15-28.74,31.74.75,3.5,1.5,6.75-2.25,10-8,7-10,16.5-6.25,26.49s11.5,15.25,22.24,15.25c3.5.25,5,1.25,7,4,10.5,16.25,31.24,16.75,43,1,2-3,3.75-3.5,7.25-2.75,8.75,2.5,16.25-.5,22-7.25,2.5-3,4.75-3.5,8.25-3.5,13,.5,22.49-5.5,28-17,6-11,4.75-22.49-3-32.49h0c-8-10.5-19-13.75-31.74-11-3.5.75-5,.25-7.5-2.25-9.5-10.5-21.74-12.25-33.49-4.75-3,1.75-4.75,2.25-7.5-.5-5.25-5-11.75-7.25-17.25-7"/><text class="cls-2" transform="translate(617.45 173.79)">Floating UI</text><path class="cls-1" d="M1068.43,21.2c-21.6.24-43.44.24-65.28.24-21.6,0-43.44.24-65.28-.24-7,0-10,2.91-9.71,10q.36,15.29,0,30.58c0,4.85,1.21,8.74,6.07,10.44s6.07,5.34,5.82,10.19c-.24,10,.24,19.9-.24,29.85-.24,7,2.67,9,9.22,9,40.29-.24,80.33-.24,120.62,0,7,0,9-2.91,9-9.46-.24-26.7,0-53.39,0-80.09.24-7-2.43-10.68-10.19-10.44Z"/><path class="cls-9" d="M1009.7,24.84c-19.42,0-39.07.24-58.49-.24-5.58-.24-7.52,1.21-7.52,7.28.24,26.21.24,52.18,0,78.39,0,6.31,2.43,8.25,8.25,8.25q57.88-.36,115.76,0c5.82,0,8.25-1.7,8.25-8-.24-25.73-.24-51.69,0-77.66,0-6.07-1.7-8.25-8-8.25-19.9.49-39.07.24-58.25.24Z"/><path class="cls-10" d="M1033.48,42.07c-2.91-.49-4.37-2.18-4.13-5.1.24-2.43,1.7-4.13,4.37-4.13,2.91,0,4.37,1.7,4.37,4.61-.24,3.15-1.94,4.37-4.61,4.61Z"/><path class="cls-11" d="M1048,32.85c2.91.24,4.61,1.46,4.61,4.61a4,4,0,0,1-3.88,4.37c-2.43.24-4.37-.73-4.61-3.64C1043.92,35.52,1044.89,33.33,1048,32.85Z"/><path class="cls-12" d="M1062.61,32.85c2.67.24,4.37,1.46,4.61,3.88.24,3.15-1.7,4.37-4.37,4.37S1059,39.4,1059,37s1.7-3.4,3.64-4.13Z"/><path class="cls-13" d="M1006.06,52.75h-26.7a1.82,1.82,0,0,1-1.7-1.7v-1.7a1.82,1.82,0,0,1,1.7-1.7h26.7a1.82,1.82,0,0,1,1.7,1.7V51C1007.52,51.78,1007,52.75,1006.06,52.75Zm0,9.71h-26.7a1.82,1.82,0,0,1-1.7-1.7v-1.7a1.82,1.82,0,0,1,1.7-1.7h26.7a1.82,1.82,0,0,1,1.7,1.7v1.7C1007.52,61.73,1007,62.46,1006.06,62.46Zm42.71,18.2H971.84a1.82,1.82,0,0,1-1.7-1.7v-1.7a1.82,1.82,0,0,1,1.7-1.7h76.93a1.82,1.82,0,0,1,1.7,1.7V79A1.53,1.53,0,0,1,1048.77,80.66Z"/><path class="cls-11" d="M968.69,62.94H958a3.21,3.21,0,0,1-3.15-3.15V48.87A3.21,3.21,0,0,1,958,45.71h10.68a3.21,3.21,0,0,1,3.15,3.15V59.54a3.27,3.27,0,0,1-3.15,3.4Z"/><path class="cls-13" d="M1024.5,111.48h-68.2a3.21,3.21,0,0,1-3.15-3.15V94a3.21,3.21,0,0,1,3.15-3.15h68.2a3.21,3.21,0,0,1,3.15,3.15v14.32A3.21,3.21,0,0,1,1024.5,111.48Z"/><path class="cls-1" d="M1062.61,111.48h-23.06a3.21,3.21,0,0,1-3.15-3.15V94a3.21,3.21,0,0,1,3.15-3.15h23.06a3.21,3.21,0,0,1,3.15,3.15v14.32A3.21,3.21,0,0,1,1062.61,111.48Z"/><path class="cls-14" d="M1063.82,62.94h-35.68a3.21,3.21,0,0,1-3.15-3.15V51.54a3.21,3.21,0,0,1,3.15-3.15h35.68a3.21,3.21,0,0,1,3.15,3.15v8.25A3.21,3.21,0,0,1,1063.82,62.94Z"/><path class="cls-13" d="M999.27,38.67H956.79a2.18,2.18,0,0,1-2.18-2.18V36a2.18,2.18,0,0,1,2.18-2.18h42.47a2.18,2.18,0,0,1,2.18,2.18v.49A2.18,2.18,0,0,1,999.27,38.67Z"/><path class="cls-5" d="M1060.67,84.3l-1.21-1.21,5.1-5.1-4.85-4.85,1.21-1.21L1067,78Zm-99.75,0L954.85,78l6.07-6.07,1.21,1.21-5.1,5.1,4.85,4.85Z"/><text class="cls-2" transform="translate(983.18 173.79)">CRM</text></g></svg>